<svg width="133" height="133" viewBox="0 0 133 133" fill="none" xmlns="http://www.w3.org/2000/svg">
<g filter="url(#filter0_d_5652_1121)">
<rect x="35" y="35" width="64" height="64" rx="32" fill="#2E7EC6"/>
<rect x="35.5" y="35.5" width="63" height="63" rx="31.5" stroke="white"/>
</g>
<rect x="26.5" y="26.5" width="81" height="81" rx="40.5" stroke="white" stroke-opacity="0.5"/>
<rect opacity="0.8" x="17.5" y="17.5" width="99" height="99" rx="49.5" stroke="white" stroke-opacity="0.5"/>
<rect opacity="0.5" x="8.5" y="8.5" width="116" height="116" rx="58" stroke="white" stroke-opacity="0.5"/>
<rect opacity="0.3" x="0.5" y="0.5" width="132" height="132" rx="66" stroke="white" stroke-opacity="0.5"/>
<path d="M61.4219 56.8281L74.9219 65.0781C75.6094 65.5469 75.9688 66.1875 76 67C75.9688 67.8438 75.6094 68.4844 74.9219 68.9219L61.4219 77.1719C60.6719 77.6094 59.9219 77.625 59.1719 77.2188C58.4219 76.7812 58.0312 76.125 58 75.25V58.75C58.0312 57.875 58.4219 57.2188 59.1719 56.7812C59.9219 56.375 60.6719 56.3906 61.4219 56.8281Z" fill="white"/>
<defs>
<filter id="filter0_d_5652_1121" x="31" y="35" width="72" height="72" filterUnits="userSpaceOnUse" color-interpolation-filters="sRGB">
<feFlood flood-opacity="0" result="BackgroundImageFix"/>
<feColorMatrix in="SourceAlpha" type="matrix" values="0 0 0 0 0 0 0 0 0 0 0 0 0 0 0 0 0 0 127 0" result="hardAlpha"/>
<feOffset dy="4"/>
<feGaussianBlur stdDeviation="2"/>
<feComposite in2="hardAlpha" operator="out"/>
<feColorMatrix type="matrix" values="0 0 0 0 0.364583 0 0 0 0 0.49875 0 0 0 0 0.7 0 0 0 0.49 0"/>
<feBlend mode="normal" in2="BackgroundImageFix" result="effect1_dropShadow_5652_1121"/>
<feBlend mode="normal" in="SourceGraphic" in2="effect1_dropShadow_5652_1121" result="shape"/>
</filter>
</defs>
</svg>
