<svg width="52" height="52" viewBox="0 0 52 52" fill="none" xmlns="http://www.w3.org/2000/svg">
<path d="M35.0431 1.61708C32.2263 0.572102 29.18 1.35177e-08 25.9996 1.35177e-08C22.8193 -0.000101549 19.7728 0.572102 16.9562 1.61708L14.6953 25.9999L16.9562 50.3827C19.7727 51.428 22.8192 52 25.9996 52C29.1799 52 32.2264 51.428 35.0431 50.3827L37.3038 26L35.0431 1.61708Z" fill="#FFDA44"/>
<path d="M51.9995 26C51.9995 14.821 44.9438 5.2907 35.043 1.61719V50.383C44.9438 46.7091 51.9994 37.1792 51.9995 26Z" fill="#D80027"/>
<path d="M0 25.9998C0 37.1791 7.05575 46.709 16.9564 50.3828L16.9565 1.61719C7.05575 5.2907 0 14.8207 0 25.9998Z" fill="#0052B4"/>
</svg>
