<svg width="512" height="512" viewBox="0 0 512 512" fill="none" xmlns="http://www.w3.org/2000/svg">
<g clip-path="url(#clip0_774_602)">
<path d="M54.9003 440.199C48.6003 440.199 43.7003 445.899 44.7003 452.099C50.4003 486.099 79.9003 511.999 115.5 511.999H419.4C382.8 511.999 352.6 484.599 348.2 449.199C347.6 444.099 343.2 440.199 338 440.199H54.9003Z" fill="#FFF3EE"/>
<path d="M65 491.199C78 504.099 95.8 511.999 115.5 511.999H419.4C382.8 511.999 352.6 484.599 348.2 449.199C347.6 444.099 343.2 440.199 338 440.199H317.5C317.5 448.799 318.6 457.199 320.6 465.199C323.9 478.399 314.1 491.199 300.5 491.199H65Z" fill="#EAD6D0"/>
<path d="M135.301 10.3V440.2H347.601C347.601 480.2 380.301 512.5 420.401 512C459.901 511.5 491.301 478.6 491.301 439.1V10.3C491.301 4.6 486.701 0 481.001 0H145.601C139.901 0 135.301 4.6 135.301 10.3Z" fill="#FFDDCC"/>
<path d="M491.201 439.2V10.3C491.201 4.6 486.601 0 480.901 0H458.901V439.4C458.901 461.6 440.801 480.1 418.601 479.7C397.101 479.3 379.801 461.7 379.801 440.2V428.6C379.801 422.9 375.201 418.3 369.501 418.3H135.301V440.2H337.901C343.101 440.2 347.501 444.1 348.101 449.3C352.601 484.8 383.001 512.2 419.801 512C459.501 511.7 491.201 478.9 491.201 439.2Z" fill="#FFCACA"/>
<path d="M313.2 164.9C313.2 164.9 323 156.9 334.7 145.1C352.2 127.5 373.9 101.6 373.9 81.3C373.9 80.1 373.8 78.9 373.7 77.8C372 62.7 359.2 51 343.6 51C326.8 51 313.2 64.6 313.2 81.4H313.3C313.3 64.6 299.7 51 282.9 51C266.1 51 252.5 64.6 252.5 81.4C252.5 115.2 313.3 164.9 313.2 164.9Z" fill="#FF6C8C"/>
<path d="M192.501 328.299H313.201C317.501 328.299 321.001 324.799 321.001 320.499C321.001 316.199 317.501 312.699 313.201 312.699H192.501C188.201 312.699 184.701 316.199 184.701 320.499C184.701 324.799 188.201 328.299 192.501 328.299Z" fill="#FF4A7A"/>
<path d="M192.501 276.299H434.001C438.301 276.299 441.801 272.799 441.801 268.499C441.801 264.199 438.301 260.699 434.001 260.699H192.501C188.201 260.699 184.701 264.199 184.701 268.499C184.701 272.799 188.201 276.299 192.501 276.299Z" fill="#FF4A7A"/>
<path d="M434.002 396H367.402C363.102 396 359.602 399.5 359.602 403.8C359.602 408.1 363.102 411.6 367.402 411.6H434.002C438.302 411.6 441.802 408.1 441.802 403.8C441.802 399.5 438.302 396 434.002 396Z" fill="#FF4A7A"/>
<path d="M192.501 411.6H259.101C263.401 411.6 266.901 408.1 266.901 403.8C266.901 399.5 263.401 396 259.101 396H192.501C188.201 396 184.701 399.5 184.701 403.8C184.701 408.1 188.201 411.6 192.501 411.6Z" fill="#FF4A7A"/>
<path d="M184.701 216.499C184.701 220.799 188.201 224.299 192.501 224.299H434.001C438.301 224.299 441.801 220.799 441.801 216.499C441.801 212.199 438.301 208.699 434.001 208.699H192.501C188.201 208.599 184.701 212.099 184.701 216.499Z" fill="#FF4A7A"/>
</g>
<defs>
<clipPath id="clip0_774_602">
<rect width="512" height="512" fill="white"/>
</clipPath>
</defs>
</svg>
